<mxfile host="65bd71144e">
    <diagram name="Page-5" id="smJ3RW2iIOiQ5t3F87YJ">
        <mxGraphModel dx="802" dy="612" grid="1" gridSize="10" guides="1" tooltips="1" connect="1" arrows="1" fold="1" page="1" pageScale="1" pageWidth="2339" pageHeight="3300" math="0" shadow="0">
            <root>
                <mxCell id="yP5_3m39wZZBu2xU6633-0"/>
                <mxCell id="yP5_3m39wZZBu2xU6633-1" parent="yP5_3m39wZZBu2xU6633-0"/>
                <mxCell id="yP5_3m39wZZBu2xU6633-2" style="edgeStyle=none;html=1;dashed=1;dashPattern=8 8;" edge="1" parent="yP5_3m39wZZBu2xU6633-1">
                    <mxGeometry relative="1" as="geometry">
                        <mxPoint x="110" y="519.9999999999998" as="targetPoint"/>
                        <mxPoint x="110" y="130" as="sourcePoint"/>
                    </mxGeometry>
                </mxCell>
                <mxCell id="yP5_3m39wZZBu2xU6633-3" value="pink" style="rounded=0;whiteSpace=wrap;html=1;" vertex="1" parent="yP5_3m39wZZBu2xU6633-1">
                    <mxGeometry x="70" y="90" width="80" height="40" as="geometry"/>
                </mxCell>
                <mxCell id="yP5_3m39wZZBu2xU6633-4" value="orange" style="rounded=0;whiteSpace=wrap;html=1;" vertex="1" parent="yP5_3m39wZZBu2xU6633-1">
                    <mxGeometry x="210" y="90" width="80" height="40" as="geometry"/>
                </mxCell>
                <mxCell id="yP5_3m39wZZBu2xU6633-5" style="edgeStyle=none;html=1;dashed=1;dashPattern=8 8;" edge="1" parent="yP5_3m39wZZBu2xU6633-1">
                    <mxGeometry relative="1" as="geometry">
                        <mxPoint x="549.9999999999998" y="519.9999999999998" as="targetPoint"/>
                        <mxPoint x="549.9999999999998" y="130" as="sourcePoint"/>
                    </mxGeometry>
                </mxCell>
                <mxCell id="yP5_3m39wZZBu2xU6633-6" value="Server" style="rounded=0;whiteSpace=wrap;html=1;" vertex="1" parent="yP5_3m39wZZBu2xU6633-1">
                    <mxGeometry x="510" y="90" width="80" height="40" as="geometry"/>
                </mxCell>
                <mxCell id="yP5_3m39wZZBu2xU6633-7" value="" style="endArrow=classic;html=1;" edge="1" parent="yP5_3m39wZZBu2xU6633-1">
                    <mxGeometry width="50" height="50" relative="1" as="geometry">
                        <mxPoint x="110" y="160" as="sourcePoint"/>
                        <mxPoint x="550" y="160" as="targetPoint"/>
                    </mxGeometry>
                </mxCell>
                <mxCell id="yP5_3m39wZZBu2xU6633-8" value="getVersion(&quot;name&quot;)" style="edgeLabel;html=1;align=center;verticalAlign=middle;resizable=0;points=[];" vertex="1" connectable="0" parent="yP5_3m39wZZBu2xU6633-7">
                    <mxGeometry x="-0.7571" y="3" relative="1" as="geometry">
                        <mxPoint x="17" as="offset"/>
                    </mxGeometry>
                </mxCell>
                <mxCell id="yP5_3m39wZZBu2xU6633-9" style="edgeStyle=none;html=1;dashed=1;dashPattern=8 8;" edge="1" parent="yP5_3m39wZZBu2xU6633-1">
                    <mxGeometry relative="1" as="geometry">
                        <mxPoint x="249.5" y="519.9999999999998" as="targetPoint"/>
                        <mxPoint x="249.5" y="130" as="sourcePoint"/>
                    </mxGeometry>
                </mxCell>
                <mxCell id="yP5_3m39wZZBu2xU6633-10" value="" style="endArrow=classic;html=1;dashed=1;strokeColor=#000000;fontFamily=Helvetica;fontSize=12;fontColor=default;" edge="1" parent="yP5_3m39wZZBu2xU6633-1">
                    <mxGeometry width="50" height="50" relative="1" as="geometry">
                        <mxPoint x="550" y="270" as="sourcePoint"/>
                        <mxPoint x="250" y="270" as="targetPoint"/>
                    </mxGeometry>
                </mxCell>
                <mxCell id="yP5_3m39wZZBu2xU6633-11" value="&quot;{}&quot;" style="edgeLabel;html=1;align=center;verticalAlign=middle;resizable=0;points=[];fontSize=12;fontFamily=Helvetica;fontColor=default;" vertex="1" connectable="0" parent="yP5_3m39wZZBu2xU6633-10">
                    <mxGeometry x="0.7955" y="-2" relative="1" as="geometry">
                        <mxPoint as="offset"/>
                    </mxGeometry>
                </mxCell>
                <mxCell id="yP5_3m39wZZBu2xU6633-12" value="" style="endArrow=classic;html=1;" edge="1" parent="yP5_3m39wZZBu2xU6633-1">
                    <mxGeometry width="50" height="50" relative="1" as="geometry">
                        <mxPoint x="250" y="230" as="sourcePoint"/>
                        <mxPoint x="550" y="230" as="targetPoint"/>
                    </mxGeometry>
                </mxCell>
                <mxCell id="yP5_3m39wZZBu2xU6633-13" value="getVersion(&quot;name&quot;)" style="edgeLabel;html=1;align=center;verticalAlign=middle;resizable=0;points=[];" vertex="1" connectable="0" parent="yP5_3m39wZZBu2xU6633-12">
                    <mxGeometry x="-0.7571" y="3" relative="1" as="geometry">
                        <mxPoint x="17" as="offset"/>
                    </mxGeometry>
                </mxCell>
                <mxCell id="yP5_3m39wZZBu2xU6633-14" value="" style="endArrow=classic;html=1;dashed=1;strokeColor=#000000;fontFamily=Helvetica;fontSize=12;fontColor=default;" edge="1" parent="yP5_3m39wZZBu2xU6633-1">
                    <mxGeometry width="50" height="50" relative="1" as="geometry">
                        <mxPoint x="560" y="200" as="sourcePoint"/>
                        <mxPoint x="120" y="200" as="targetPoint"/>
                    </mxGeometry>
                </mxCell>
                <mxCell id="yP5_3m39wZZBu2xU6633-15" value="&quot;{}&quot;" style="edgeLabel;html=1;align=center;verticalAlign=middle;resizable=0;points=[];fontSize=12;fontFamily=Helvetica;fontColor=default;" vertex="1" connectable="0" parent="yP5_3m39wZZBu2xU6633-14">
                    <mxGeometry x="0.7955" y="-2" relative="1" as="geometry">
                        <mxPoint as="offset"/>
                    </mxGeometry>
                </mxCell>
                <mxCell id="yP5_3m39wZZBu2xU6633-16" value="" style="endArrow=classic;html=1;" edge="1" parent="yP5_3m39wZZBu2xU6633-1">
                    <mxGeometry width="50" height="50" relative="1" as="geometry">
                        <mxPoint x="110" y="310" as="sourcePoint"/>
                        <mxPoint x="550" y="310" as="targetPoint"/>
                    </mxGeometry>
                </mxCell>
                <mxCell id="yP5_3m39wZZBu2xU6633-17" value="putAsPrimary(&quot;name&quot;, &quot;Alice&quot;, &quot;{}&quot;)" style="edgeLabel;html=1;align=center;verticalAlign=middle;resizable=0;points=[];" vertex="1" connectable="0" parent="yP5_3m39wZZBu2xU6633-16">
                    <mxGeometry x="-0.7571" y="3" relative="1" as="geometry">
                        <mxPoint x="77" as="offset"/>
                    </mxGeometry>
                </mxCell>
                <mxCell id="yP5_3m39wZZBu2xU6633-18" value="key: &quot;name&quot;&lt;br&gt;values: [{value: &quot;Alice&quot;, version: {pink: 1}}]&amp;nbsp;" style="shape=note;whiteSpace=wrap;html=1;backgroundOutline=1;darkOpacity=0.05;" vertex="1" parent="yP5_3m39wZZBu2xU6633-1">
                    <mxGeometry x="405" y="340" width="290" height="60" as="geometry"/>
                </mxCell>
                <mxCell id="yP5_3m39wZZBu2xU6633-19" value="" style="endArrow=classic;html=1;" edge="1" parent="yP5_3m39wZZBu2xU6633-1">
                    <mxGeometry width="50" height="50" relative="1" as="geometry">
                        <mxPoint x="250" y="430" as="sourcePoint"/>
                        <mxPoint x="550" y="430" as="targetPoint"/>
                    </mxGeometry>
                </mxCell>
                <mxCell id="yP5_3m39wZZBu2xU6633-20" value="putAsPrimary(&quot;name&quot;, &quot;Bob&quot;, &quot;{}&quot;)" style="edgeLabel;html=1;align=center;verticalAlign=middle;resizable=0;points=[];" vertex="1" connectable="0" parent="yP5_3m39wZZBu2xU6633-19">
                    <mxGeometry x="-0.7571" y="3" relative="1" as="geometry">
                        <mxPoint x="77" as="offset"/>
                    </mxGeometry>
                </mxCell>
                <mxCell id="RQnpfGie_-ros3RCxmP8-0" value="key: &quot;name&quot;&lt;br&gt;values: [{value: &quot;Alice&quot;, version: {pink: 1}},&lt;br&gt;{value:&quot;Bob&quot;, version: {orange: 1}}}]&amp;nbsp;" style="shape=note;whiteSpace=wrap;html=1;backgroundOutline=1;darkOpacity=0.05;" vertex="1" parent="yP5_3m39wZZBu2xU6633-1">
                    <mxGeometry x="410" y="440" width="290" height="80" as="geometry"/>
                </mxCell>
            </root>
        </mxGraphModel>
    </diagram>
    <diagram id="V6dYu23I1VrT_hlgrn7M" name="Page-4">
        <mxGraphModel dx="802" dy="612" grid="1" gridSize="10" guides="1" tooltips="1" connect="1" arrows="1" fold="1" page="1" pageScale="1" pageWidth="2339" pageHeight="3300" math="0" shadow="0">
            <root>
                <mxCell id="0"/>
                <mxCell id="1" parent="0"/>
                <mxCell id="jDh89OK4RNaAV5ludxyK-1" style="edgeStyle=none;html=1;dashed=1;dashPattern=8 8;" edge="1" parent="1">
                    <mxGeometry relative="1" as="geometry">
                        <mxPoint x="110" y="519.9999999999998" as="targetPoint"/>
                        <mxPoint x="110" y="130" as="sourcePoint"/>
                    </mxGeometry>
                </mxCell>
                <mxCell id="jDh89OK4RNaAV5ludxyK-2" value="pink" style="rounded=0;whiteSpace=wrap;html=1;" vertex="1" parent="1">
                    <mxGeometry x="70" y="90" width="80" height="40" as="geometry"/>
                </mxCell>
                <mxCell id="jDh89OK4RNaAV5ludxyK-4" value="orange" style="rounded=0;whiteSpace=wrap;html=1;" vertex="1" parent="1">
                    <mxGeometry x="210" y="90" width="80" height="40" as="geometry"/>
                </mxCell>
                <mxCell id="jDh89OK4RNaAV5ludxyK-5" style="edgeStyle=none;html=1;dashed=1;dashPattern=8 8;" edge="1" parent="1">
                    <mxGeometry relative="1" as="geometry">
                        <mxPoint x="549.9999999999998" y="519.9999999999998" as="targetPoint"/>
                        <mxPoint x="549.9999999999998" y="130" as="sourcePoint"/>
                    </mxGeometry>
                </mxCell>
                <mxCell id="jDh89OK4RNaAV5ludxyK-6" value="Server" style="rounded=0;whiteSpace=wrap;html=1;" vertex="1" parent="1">
                    <mxGeometry x="510" y="90" width="80" height="40" as="geometry"/>
                </mxCell>
                <mxCell id="jDh89OK4RNaAV5ludxyK-7" value="" style="endArrow=classic;html=1;" edge="1" parent="1">
                    <mxGeometry width="50" height="50" relative="1" as="geometry">
                        <mxPoint x="110" y="160" as="sourcePoint"/>
                        <mxPoint x="550" y="160" as="targetPoint"/>
                    </mxGeometry>
                </mxCell>
                <mxCell id="jDh89OK4RNaAV5ludxyK-8" value="getVersion(&quot;name&quot;)" style="edgeLabel;html=1;align=center;verticalAlign=middle;resizable=0;points=[];" vertex="1" connectable="0" parent="jDh89OK4RNaAV5ludxyK-7">
                    <mxGeometry x="-0.7571" y="3" relative="1" as="geometry">
                        <mxPoint x="17" as="offset"/>
                    </mxGeometry>
                </mxCell>
                <mxCell id="jDh89OK4RNaAV5ludxyK-21" style="edgeStyle=none;html=1;dashed=1;dashPattern=8 8;" edge="1" parent="1">
                    <mxGeometry relative="1" as="geometry">
                        <mxPoint x="249.5" y="519.9999999999998" as="targetPoint"/>
                        <mxPoint x="249.5" y="130" as="sourcePoint"/>
                    </mxGeometry>
                </mxCell>
                <mxCell id="jDh89OK4RNaAV5ludxyK-22" value="" style="endArrow=classic;html=1;dashed=1;strokeColor=#000000;fontFamily=Helvetica;fontSize=12;fontColor=default;" edge="1" parent="1">
                    <mxGeometry width="50" height="50" relative="1" as="geometry">
                        <mxPoint x="550" y="270" as="sourcePoint"/>
                        <mxPoint x="250" y="270" as="targetPoint"/>
                    </mxGeometry>
                </mxCell>
                <mxCell id="jDh89OK4RNaAV5ludxyK-23" value="&quot;{}&quot;" style="edgeLabel;html=1;align=center;verticalAlign=middle;resizable=0;points=[];fontSize=12;fontFamily=Helvetica;fontColor=default;" vertex="1" connectable="0" parent="jDh89OK4RNaAV5ludxyK-22">
                    <mxGeometry x="0.7955" y="-2" relative="1" as="geometry">
                        <mxPoint as="offset"/>
                    </mxGeometry>
                </mxCell>
                <mxCell id="jDh89OK4RNaAV5ludxyK-24" value="" style="endArrow=classic;html=1;" edge="1" parent="1">
                    <mxGeometry width="50" height="50" relative="1" as="geometry">
                        <mxPoint x="250" y="230" as="sourcePoint"/>
                        <mxPoint x="550" y="230" as="targetPoint"/>
                    </mxGeometry>
                </mxCell>
                <mxCell id="jDh89OK4RNaAV5ludxyK-25" value="getVersion(&quot;name&quot;)" style="edgeLabel;html=1;align=center;verticalAlign=middle;resizable=0;points=[];" vertex="1" connectable="0" parent="jDh89OK4RNaAV5ludxyK-24">
                    <mxGeometry x="-0.7571" y="3" relative="1" as="geometry">
                        <mxPoint x="17" as="offset"/>
                    </mxGeometry>
                </mxCell>
                <mxCell id="jDh89OK4RNaAV5ludxyK-26" value="" style="endArrow=classic;html=1;dashed=1;strokeColor=#000000;fontFamily=Helvetica;fontSize=12;fontColor=default;" edge="1" parent="1">
                    <mxGeometry width="50" height="50" relative="1" as="geometry">
                        <mxPoint x="560" y="200" as="sourcePoint"/>
                        <mxPoint x="120" y="200" as="targetPoint"/>
                    </mxGeometry>
                </mxCell>
                <mxCell id="jDh89OK4RNaAV5ludxyK-27" value="&quot;{}&quot;" style="edgeLabel;html=1;align=center;verticalAlign=middle;resizable=0;points=[];fontSize=12;fontFamily=Helvetica;fontColor=default;" vertex="1" connectable="0" parent="jDh89OK4RNaAV5ludxyK-26">
                    <mxGeometry x="0.7955" y="-2" relative="1" as="geometry">
                        <mxPoint as="offset"/>
                    </mxGeometry>
                </mxCell>
                <mxCell id="jDh89OK4RNaAV5ludxyK-28" value="" style="endArrow=classic;html=1;" edge="1" parent="1">
                    <mxGeometry width="50" height="50" relative="1" as="geometry">
                        <mxPoint x="110" y="310" as="sourcePoint"/>
                        <mxPoint x="550" y="310" as="targetPoint"/>
                    </mxGeometry>
                </mxCell>
                <mxCell id="jDh89OK4RNaAV5ludxyK-29" value="putAsPrimary(&quot;name&quot;, &quot;Alice&quot;, &quot;{}&quot;)" style="edgeLabel;html=1;align=center;verticalAlign=middle;resizable=0;points=[];" vertex="1" connectable="0" parent="jDh89OK4RNaAV5ludxyK-28">
                    <mxGeometry x="-0.7571" y="3" relative="1" as="geometry">
                        <mxPoint x="77" as="offset"/>
                    </mxGeometry>
                </mxCell>
                <mxCell id="QNY0B1elbXckvh1f6pbU-1" value="key: &quot;name&quot;&lt;br&gt;value: &quot;Alice&quot;&lt;br&gt;version: {Server:1}" style="shape=note;whiteSpace=wrap;html=1;backgroundOutline=1;darkOpacity=0.05;" vertex="1" parent="1">
                    <mxGeometry x="470" y="340" width="145" height="60" as="geometry"/>
                </mxCell>
                <mxCell id="QNY0B1elbXckvh1f6pbU-2" value="" style="endArrow=classic;html=1;" edge="1" parent="1">
                    <mxGeometry width="50" height="50" relative="1" as="geometry">
                        <mxPoint x="250" y="430" as="sourcePoint"/>
                        <mxPoint x="550" y="430" as="targetPoint"/>
                    </mxGeometry>
                </mxCell>
                <mxCell id="QNY0B1elbXckvh1f6pbU-3" value="putAsPrimary(&quot;name&quot;, &quot;Bob&quot;, &quot;{}&quot;)" style="edgeLabel;html=1;align=center;verticalAlign=middle;resizable=0;points=[];" vertex="1" connectable="0" parent="QNY0B1elbXckvh1f6pbU-2">
                    <mxGeometry x="-0.7571" y="3" relative="1" as="geometry">
                        <mxPoint x="77" as="offset"/>
                    </mxGeometry>
                </mxCell>
                <mxCell id="QNY0B1elbXckvh1f6pbU-4" value="" style="endArrow=classic;html=1;dashed=1;strokeColor=#000000;fontFamily=Helvetica;fontSize=12;fontColor=default;" edge="1" parent="1">
                    <mxGeometry width="50" height="50" relative="1" as="geometry">
                        <mxPoint x="550" y="480" as="sourcePoint"/>
                        <mxPoint x="250" y="480" as="targetPoint"/>
                    </mxGeometry>
                </mxCell>
                <mxCell id="QNY0B1elbXckvh1f6pbU-5" value="ObsoleteValueException(&quot;Version too old&quot;)" style="edgeLabel;html=1;align=center;verticalAlign=middle;resizable=0;points=[];fontSize=12;fontFamily=Helvetica;fontColor=default;" vertex="1" connectable="0" parent="QNY0B1elbXckvh1f6pbU-4">
                    <mxGeometry x="0.7955" y="-2" relative="1" as="geometry">
                        <mxPoint x="109" as="offset"/>
                    </mxGeometry>
                </mxCell>
            </root>
        </mxGraphModel>
    </diagram>
    <diagram id="5jI7B_a-oYEsV--heefy" name="Page-3">
        <mxGraphModel dx="764" dy="583" grid="1" gridSize="10" guides="1" tooltips="1" connect="1" arrows="1" fold="1" page="1" pageScale="1" pageWidth="2339" pageHeight="3300" math="0" shadow="0">
            <root>
                <mxCell id="0"/>
                <mxCell id="1" parent="0"/>
                <mxCell id="_T4clq7Bk7Pc8T9KsCla-1" style="edgeStyle=none;html=1;dashed=1;dashPattern=8 8;" edge="1" parent="1">
                    <mxGeometry relative="1" as="geometry">
                        <mxPoint x="110" y="519.9999999999998" as="targetPoint"/>
                        <mxPoint x="110" y="130" as="sourcePoint"/>
                    </mxGeometry>
                </mxCell>
                <mxCell id="_T4clq7Bk7Pc8T9KsCla-2" value="Client" style="rounded=0;whiteSpace=wrap;html=1;" vertex="1" parent="1">
                    <mxGeometry x="70" y="90" width="80" height="40" as="geometry"/>
                </mxCell>
                <mxCell id="_T4clq7Bk7Pc8T9KsCla-3" style="edgeStyle=none;html=1;dashed=1;startArrow=none;dashPattern=8 8;" edge="1" source="_T4clq7Bk7Pc8T9KsCla-10" parent="1">
                    <mxGeometry relative="1" as="geometry">
                        <mxPoint x="389.9999999999998" y="519.9999999999998" as="targetPoint"/>
                        <mxPoint x="390" y="130" as="sourcePoint"/>
                    </mxGeometry>
                </mxCell>
                <mxCell id="_T4clq7Bk7Pc8T9KsCla-4" value="blue" style="rounded=0;whiteSpace=wrap;html=1;" vertex="1" parent="1">
                    <mxGeometry x="350" y="90" width="80" height="40" as="geometry"/>
                </mxCell>
                <mxCell id="_T4clq7Bk7Pc8T9KsCla-5" style="edgeStyle=none;html=1;dashed=1;dashPattern=8 8;" edge="1" parent="1">
                    <mxGeometry relative="1" as="geometry">
                        <mxPoint x="549.9999999999998" y="519.9999999999998" as="targetPoint"/>
                        <mxPoint x="549.9999999999998" y="130" as="sourcePoint"/>
                    </mxGeometry>
                </mxCell>
                <mxCell id="_T4clq7Bk7Pc8T9KsCla-6" value="green" style="rounded=0;whiteSpace=wrap;html=1;" vertex="1" parent="1">
                    <mxGeometry x="510" y="90" width="80" height="40" as="geometry"/>
                </mxCell>
                <mxCell id="_T4clq7Bk7Pc8T9KsCla-7" value="" style="endArrow=classic;html=1;" edge="1" parent="1">
                    <mxGeometry width="50" height="50" relative="1" as="geometry">
                        <mxPoint x="110" y="160" as="sourcePoint"/>
                        <mxPoint x="389.9999999999998" y="160" as="targetPoint"/>
                    </mxGeometry>
                </mxCell>
                <mxCell id="_T4clq7Bk7Pc8T9KsCla-8" value="get(&quot;name&quot;)" style="edgeLabel;html=1;align=center;verticalAlign=middle;resizable=0;points=[];" vertex="1" connectable="0" parent="_T4clq7Bk7Pc8T9KsCla-7">
                    <mxGeometry x="-0.7571" y="3" relative="1" as="geometry">
                        <mxPoint x="26" as="offset"/>
                    </mxGeometry>
                </mxCell>
                <mxCell id="_T4clq7Bk7Pc8T9KsCla-9" value="" style="edgeStyle=none;html=1;dashed=1;endArrow=none;" edge="1" target="_T4clq7Bk7Pc8T9KsCla-10" parent="1">
                    <mxGeometry relative="1" as="geometry">
                        <mxPoint x="390" y="519.9999999999998" as="targetPoint"/>
                        <mxPoint x="389.9999999999998" y="130" as="sourcePoint"/>
                    </mxGeometry>
                </mxCell>
                <mxCell id="_T4clq7Bk7Pc8T9KsCla-10" value="key: &quot;name&quot;&lt;br&gt;value: &quot;old&quot;&lt;br&gt;version: {blue:1}" style="shape=note;whiteSpace=wrap;html=1;backgroundOutline=1;darkOpacity=0.05;" vertex="1" parent="1">
                    <mxGeometry x="317.5" y="170" width="145" height="60" as="geometry"/>
                </mxCell>
                <mxCell id="_T4clq7Bk7Pc8T9KsCla-20" value="" style="endArrow=classic;html=1;" edge="1" parent="1">
                    <mxGeometry width="50" height="50" relative="1" as="geometry">
                        <mxPoint x="110" y="360" as="sourcePoint"/>
                        <mxPoint x="390" y="360" as="targetPoint"/>
                    </mxGeometry>
                </mxCell>
                <mxCell id="_T4clq7Bk7Pc8T9KsCla-21" value="put(&quot;name&quot;, &quot;new&quot;, {blue:1, green:1})" style="edgeLabel;html=1;align=center;verticalAlign=middle;resizable=0;points=[];" vertex="1" connectable="0" parent="_T4clq7Bk7Pc8T9KsCla-20">
                    <mxGeometry x="-0.7571" y="3" relative="1" as="geometry">
                        <mxPoint x="76" y="-7" as="offset"/>
                    </mxGeometry>
                </mxCell>
                <mxCell id="_T4clq7Bk7Pc8T9KsCla-23" value="" style="endArrow=classic;html=1;" edge="1" parent="1">
                    <mxGeometry width="50" height="50" relative="1" as="geometry">
                        <mxPoint x="110" y="280" as="sourcePoint"/>
                        <mxPoint x="550" y="280" as="targetPoint"/>
                    </mxGeometry>
                </mxCell>
                <mxCell id="_T4clq7Bk7Pc8T9KsCla-24" value="get(&quot;name&quot;)" style="edgeLabel;html=1;align=center;verticalAlign=middle;resizable=0;points=[];" vertex="1" connectable="0" parent="_T4clq7Bk7Pc8T9KsCla-23">
                    <mxGeometry x="-0.7571" y="3" relative="1" as="geometry">
                        <mxPoint x="26" as="offset"/>
                    </mxGeometry>
                </mxCell>
                <mxCell id="_T4clq7Bk7Pc8T9KsCla-25" value="key: &quot;name&quot;&lt;br&gt;value: &quot;new&quot;&lt;br&gt;version: {blue:1, green:1}" style="shape=note;whiteSpace=wrap;html=1;backgroundOutline=1;darkOpacity=0.05;" vertex="1" parent="1">
                    <mxGeometry x="477.5" y="290" width="145" height="60" as="geometry"/>
                </mxCell>
                <mxCell id="_T4clq7Bk7Pc8T9KsCla-26" value="key: &quot;name&quot;&lt;br&gt;value: &quot;new&quot;&lt;br&gt;version: {blue:1, green:1}" style="shape=note;whiteSpace=wrap;html=1;backgroundOutline=1;darkOpacity=0.05;" vertex="1" parent="1">
                    <mxGeometry x="400" y="390" width="145" height="60" as="geometry"/>
                </mxCell>
                <mxCell id="_T4clq7Bk7Pc8T9KsCla-27" value="" style="endArrow=classic;html=1;strokeColor=#000000;fontFamily=Helvetica;fontSize=12;fontColor=default;" edge="1" parent="1">
                    <mxGeometry width="50" height="50" relative="1" as="geometry">
                        <mxPoint x="110" y="300" as="sourcePoint"/>
                        <mxPoint x="110" y="330" as="targetPoint"/>
                        <Array as="points">
                            <mxPoint x="160" y="320"/>
                        </Array>
                    </mxGeometry>
                </mxCell>
                <mxCell id="_T4clq7Bk7Pc8T9KsCla-28" value="repairMissingOrStaleValues" style="text;html=1;align=center;verticalAlign=middle;resizable=0;points=[];autosize=1;strokeColor=none;fillColor=none;fontSize=12;fontFamily=Helvetica;fontColor=default;" vertex="1" parent="1">
                    <mxGeometry x="150" y="305" width="170" height="30" as="geometry"/>
                </mxCell>
                <mxCell id="_T4clq7Bk7Pc8T9KsCla-29" value="" style="endArrow=classic;html=1;strokeColor=#000000;fontFamily=Helvetica;fontSize=12;fontColor=default;dashed=1;" edge="1" parent="1">
                    <mxGeometry width="50" height="50" relative="1" as="geometry">
                        <mxPoint x="390" y="440" as="sourcePoint"/>
                        <mxPoint x="110" y="440" as="targetPoint"/>
                    </mxGeometry>
                </mxCell>
                <mxCell id="_T4clq7Bk7Pc8T9KsCla-31" value="" style="rounded=0;whiteSpace=wrap;html=1;strokeColor=default;fontFamily=Helvetica;fontSize=12;fontColor=default;fillColor=default;" vertex="1" parent="1">
                    <mxGeometry x="100" y="280" width="10" height="160" as="geometry"/>
                </mxCell>
            </root>
        </mxGraphModel>
    </diagram>
    <diagram id="aBWBPzxX6sZDCQYyK9Sq" name="Page-2">
        <mxGraphModel dx="909" dy="720" grid="1" gridSize="10" guides="1" tooltips="1" connect="1" arrows="1" fold="1" page="1" pageScale="1" pageWidth="2339" pageHeight="3300" math="0" shadow="0">
            <root>
                <mxCell id="0"/>
                <mxCell id="1" parent="0"/>
                <mxCell id="LWykJrNo0ArAj0ly_8e9-5" value="" style="group" vertex="1" connectable="0" parent="1">
                    <mxGeometry x="200" y="80" width="120" height="60" as="geometry"/>
                </mxCell>
                <mxCell id="LWykJrNo0ArAj0ly_8e9-1" value="Client1" style="rounded=0;whiteSpace=wrap;html=1;movable=1;resizable=1;rotatable=1;deletable=1;editable=1;connectable=1;" vertex="1" parent="LWykJrNo0ArAj0ly_8e9-5">
                    <mxGeometry width="120" height="30" as="geometry"/>
                </mxCell>
                <mxCell id="LWykJrNo0ArAj0ly_8e9-4" value="" style="rounded=0;whiteSpace=wrap;html=1;movable=1;resizable=1;rotatable=1;deletable=1;editable=1;connectable=1;" vertex="1" parent="LWykJrNo0ArAj0ly_8e9-5">
                    <mxGeometry y="30" width="120" height="30" as="geometry"/>
                </mxCell>
                <mxCell id="LWykJrNo0ArAj0ly_8e9-6" value="" style="group" vertex="1" connectable="0" parent="1">
                    <mxGeometry x="520" y="80" width="120" height="60" as="geometry"/>
                </mxCell>
                <mxCell id="LWykJrNo0ArAj0ly_8e9-7" value="Client2" style="rounded=0;whiteSpace=wrap;html=1;movable=1;resizable=1;rotatable=1;deletable=1;editable=1;connectable=1;" vertex="1" parent="LWykJrNo0ArAj0ly_8e9-6">
                    <mxGeometry width="120" height="30" as="geometry"/>
                </mxCell>
                <mxCell id="LWykJrNo0ArAj0ly_8e9-8" value="" style="rounded=0;whiteSpace=wrap;html=1;movable=1;resizable=1;rotatable=1;deletable=1;editable=1;connectable=1;" vertex="1" parent="LWykJrNo0ArAj0ly_8e9-6">
                    <mxGeometry y="30" width="120" height="30" as="geometry"/>
                </mxCell>
                <mxCell id="LWykJrNo0ArAj0ly_8e9-9" value="Connection Failure" style="shape=note;whiteSpace=wrap;html=1;backgroundOutline=1;darkOpacity=0.05;" vertex="1" parent="1">
                    <mxGeometry x="270" y="180" width="280" height="30" as="geometry"/>
                </mxCell>
                <mxCell id="LWykJrNo0ArAj0ly_8e9-10" value="" style="group" vertex="1" connectable="0" parent="1">
                    <mxGeometry x="200" y="400" width="120" height="60" as="geometry"/>
                </mxCell>
                <mxCell id="LWykJrNo0ArAj0ly_8e9-11" value="Blue" style="rounded=0;whiteSpace=wrap;html=1;movable=1;resizable=1;rotatable=1;deletable=1;editable=1;connectable=1;" vertex="1" parent="LWykJrNo0ArAj0ly_8e9-10">
                    <mxGeometry width="120" height="30" as="geometry"/>
                </mxCell>
                <mxCell id="LWykJrNo0ArAj0ly_8e9-12" value="clock = 2" style="rounded=0;whiteSpace=wrap;html=1;movable=1;resizable=1;rotatable=1;deletable=1;editable=1;connectable=1;" vertex="1" parent="LWykJrNo0ArAj0ly_8e9-10">
                    <mxGeometry y="30" width="120" height="30" as="geometry"/>
                </mxCell>
                <mxCell id="LWykJrNo0ArAj0ly_8e9-13" value="" style="group" vertex="1" connectable="0" parent="1">
                    <mxGeometry x="520" y="400" width="120" height="60" as="geometry"/>
                </mxCell>
                <mxCell id="LWykJrNo0ArAj0ly_8e9-14" value="Green" style="rounded=0;whiteSpace=wrap;html=1;movable=1;resizable=1;rotatable=1;deletable=1;editable=1;connectable=1;" vertex="1" parent="LWykJrNo0ArAj0ly_8e9-13">
                    <mxGeometry width="120" height="30" as="geometry"/>
                </mxCell>
                <mxCell id="LWykJrNo0ArAj0ly_8e9-15" value="clock = 4" style="rounded=0;whiteSpace=wrap;html=1;movable=1;resizable=1;rotatable=1;deletable=1;editable=1;connectable=1;" vertex="1" parent="LWykJrNo0ArAj0ly_8e9-13">
                    <mxGeometry y="30" width="120" height="30" as="geometry"/>
                </mxCell>
                <mxCell id="LWykJrNo0ArAj0ly_8e9-17" style="edgeStyle=none;html=1;entryX=0;entryY=1;entryDx=0;entryDy=0;exitX=0;exitY=0;exitDx=0;exitDy=0;" edge="1" parent="1" source="LWykJrNo0ArAj0ly_8e9-4" target="LWykJrNo0ArAj0ly_8e9-11">
                    <mxGeometry relative="1" as="geometry">
                        <Array as="points">
                            <mxPoint x="120" y="240"/>
                        </Array>
                    </mxGeometry>
                </mxCell>
                <mxCell id="LWykJrNo0ArAj0ly_8e9-18" value="putAsPrimary(&quot;name&quot;, &quot;Alice&quot;, &quot;{}&quot;)" style="text;html=1;align=center;verticalAlign=middle;resizable=0;points=[];autosize=1;strokeColor=none;fillColor=none;" vertex="1" parent="1">
                    <mxGeometry x="20" y="230" width="210" height="30" as="geometry"/>
                </mxCell>
                <mxCell id="LWykJrNo0ArAj0ly_8e9-21" value="key: &quot;name@2&quot;&lt;br&gt;value: &quot;Alice&quot;&lt;br&gt;version: {blue:1}" style="shape=callout;whiteSpace=wrap;html=1;perimeter=calloutPerimeter;strokeColor=default;fontFamily=Helvetica;fontSize=12;fontColor=default;fillColor=default;" vertex="1" parent="1">
                    <mxGeometry x="200" y="320" width="120" height="80" as="geometry"/>
                </mxCell>
                <mxCell id="LWykJrNo0ArAj0ly_8e9-22" value="key: &quot;name@4&quot;&lt;br&gt;value: &quot;Bob&quot;&lt;br&gt;version: {green:1}" style="shape=callout;whiteSpace=wrap;html=1;perimeter=calloutPerimeter;strokeColor=default;fontFamily=Helvetica;fontSize=12;fontColor=default;fillColor=default;" vertex="1" parent="1">
                    <mxGeometry x="520" y="320" width="120" height="80" as="geometry"/>
                </mxCell>
                <mxCell id="LWykJrNo0ArAj0ly_8e9-23" style="edgeStyle=none;html=1;entryX=1;entryY=1;entryDx=0;entryDy=0;fontFamily=Helvetica;fontSize=12;fontColor=default;exitX=1;exitY=1;exitDx=0;exitDy=0;" edge="1" parent="1" source="LWykJrNo0ArAj0ly_8e9-7" target="LWykJrNo0ArAj0ly_8e9-14">
                    <mxGeometry relative="1" as="geometry">
                        <Array as="points">
                            <mxPoint x="730" y="250"/>
                        </Array>
                    </mxGeometry>
                </mxCell>
                <mxCell id="LWykJrNo0ArAj0ly_8e9-24" value="putAsPrimary(&quot;name&quot;, &quot;Bob&quot;, &quot;{}&quot;)" style="text;html=1;align=center;verticalAlign=middle;resizable=0;points=[];autosize=1;strokeColor=none;fillColor=none;" vertex="1" parent="1">
                    <mxGeometry x="640" y="230" width="200" height="30" as="geometry"/>
                </mxCell>
                <mxCell id="LWykJrNo0ArAj0ly_8e9-25" style="edgeStyle=none;html=1;fontFamily=Helvetica;fontSize=12;fontColor=default;dashed=1;strokeColor=#FF3333;endArrow=none;endFill=0;entryX=0.314;entryY=-0.133;entryDx=0;entryDy=0;entryPerimeter=0;" edge="1" parent="1" source="LWykJrNo0ArAj0ly_8e9-4" target="LWykJrNo0ArAj0ly_8e9-9">
                    <mxGeometry relative="1" as="geometry"/>
                </mxCell>
                <mxCell id="LWykJrNo0ArAj0ly_8e9-26" style="edgeStyle=none;html=1;fontFamily=Helvetica;fontSize=12;fontColor=default;dashed=1;strokeColor=#FF3333;endArrow=none;endFill=0;entryX=0.314;entryY=1.033;entryDx=0;entryDy=0;entryPerimeter=0;exitX=1;exitY=0;exitDx=0;exitDy=0;" edge="1" parent="1" source="LWykJrNo0ArAj0ly_8e9-12" target="LWykJrNo0ArAj0ly_8e9-9">
                    <mxGeometry relative="1" as="geometry">
                        <mxPoint x="302.1428571428571" y="150" as="sourcePoint"/>
                        <mxPoint x="387.8571428571429" y="190" as="targetPoint"/>
                    </mxGeometry>
                </mxCell>
                <mxCell id="LWykJrNo0ArAj0ly_8e9-27" style="edgeStyle=none;html=1;fontFamily=Helvetica;fontSize=12;fontColor=default;dashed=1;strokeColor=#FF3333;endArrow=none;endFill=0;entryX=0.693;entryY=-0.033;entryDx=0;entryDy=0;entryPerimeter=0;exitX=0.25;exitY=1;exitDx=0;exitDy=0;" edge="1" parent="1" source="LWykJrNo0ArAj0ly_8e9-8" target="LWykJrNo0ArAj0ly_8e9-9">
                    <mxGeometry relative="1" as="geometry">
                        <mxPoint x="298.79435404822584" y="150" as="sourcePoint"/>
                        <mxPoint x="367.9200000000001" y="186.01" as="targetPoint"/>
                    </mxGeometry>
                </mxCell>
                <mxCell id="LWykJrNo0ArAj0ly_8e9-28" style="edgeStyle=none;html=1;fontFamily=Helvetica;fontSize=12;fontColor=default;dashed=1;strokeColor=#FF3333;endArrow=none;endFill=0;entryX=0.693;entryY=1.1;entryDx=0;entryDy=0;entryPerimeter=0;exitX=0;exitY=0.5;exitDx=0;exitDy=0;" edge="1" parent="1" source="LWykJrNo0ArAj0ly_8e9-14" target="LWykJrNo0ArAj0ly_8e9-9">
                    <mxGeometry relative="1" as="geometry">
                        <mxPoint x="560" y="150" as="sourcePoint"/>
                        <mxPoint x="474.03999999999996" y="189.01" as="targetPoint"/>
                    </mxGeometry>
                </mxCell>
            </root>
        </mxGraphModel>
    </diagram>
    <diagram id="cUgEMQ921IB1CaM75zI3" name="Page-1">
        <mxGraphModel dx="901" dy="765" grid="1" gridSize="10" guides="1" tooltips="1" connect="1" arrows="1" fold="1" page="1" pageScale="1" pageWidth="2339" pageHeight="3300" math="0" shadow="0">
            <root>
                <mxCell id="0"/>
                <mxCell id="1" parent="0"/>
                <mxCell id="3" style="edgeStyle=none;html=1;dashed=1;dashPattern=8 8;" edge="1" parent="1">
                    <mxGeometry relative="1" as="geometry">
                        <mxPoint x="120" y="509.9999999999998" as="targetPoint"/>
                        <mxPoint x="120" y="120" as="sourcePoint"/>
                    </mxGeometry>
                </mxCell>
                <mxCell id="5" value="Client" style="rounded=0;whiteSpace=wrap;html=1;" vertex="1" parent="1">
                    <mxGeometry x="80" y="80" width="80" height="40" as="geometry"/>
                </mxCell>
                <mxCell id="6" style="edgeStyle=none;html=1;dashed=1;startArrow=none;dashPattern=8 8;" edge="1" parent="1" source="13">
                    <mxGeometry relative="1" as="geometry">
                        <mxPoint x="400" y="509.9999999999998" as="targetPoint"/>
                        <mxPoint x="400" y="120" as="sourcePoint"/>
                    </mxGeometry>
                </mxCell>
                <mxCell id="7" value="blue" style="rounded=0;whiteSpace=wrap;html=1;" vertex="1" parent="1">
                    <mxGeometry x="360" y="80" width="80" height="40" as="geometry"/>
                </mxCell>
                <mxCell id="9" style="edgeStyle=none;html=1;dashed=1;dashPattern=8 8;" edge="1" parent="1">
                    <mxGeometry relative="1" as="geometry">
                        <mxPoint x="560" y="509.9999999999998" as="targetPoint"/>
                        <mxPoint x="560" y="120" as="sourcePoint"/>
                    </mxGeometry>
                </mxCell>
                <mxCell id="10" value="green" style="rounded=0;whiteSpace=wrap;html=1;" vertex="1" parent="1">
                    <mxGeometry x="520" y="80" width="80" height="40" as="geometry"/>
                </mxCell>
                <mxCell id="11" value="" style="endArrow=classic;html=1;" edge="1" parent="1">
                    <mxGeometry width="50" height="50" relative="1" as="geometry">
                        <mxPoint x="120" y="150" as="sourcePoint"/>
                        <mxPoint x="400" y="150" as="targetPoint"/>
                    </mxGeometry>
                </mxCell>
                <mxCell id="12" value="getVersion(&quot;name&quot;)" style="edgeLabel;html=1;align=center;verticalAlign=middle;resizable=0;points=[];" vertex="1" connectable="0" parent="11">
                    <mxGeometry x="-0.7571" y="3" relative="1" as="geometry">
                        <mxPoint x="26" as="offset"/>
                    </mxGeometry>
                </mxCell>
                <mxCell id="14" value="" style="edgeStyle=none;html=1;dashed=1;endArrow=none;" edge="1" parent="1" target="13">
                    <mxGeometry relative="1" as="geometry">
                        <mxPoint x="400" y="509.9999999999998" as="targetPoint"/>
                        <mxPoint x="400" y="120" as="sourcePoint"/>
                    </mxGeometry>
                </mxCell>
                <mxCell id="13" value="key: &quot;name&quot;&lt;br&gt;value: &quot;old&quot;&lt;br&gt;version: {blue:1}" style="shape=note;whiteSpace=wrap;html=1;backgroundOutline=1;darkOpacity=0.05;" vertex="1" parent="1">
                    <mxGeometry x="327.5" y="160" width="145" height="60" as="geometry"/>
                </mxCell>
                <mxCell id="19" value="" style="endArrow=classic;html=1;dashed=1;" edge="1" parent="1">
                    <mxGeometry width="50" height="50" relative="1" as="geometry">
                        <mxPoint x="400" y="240" as="sourcePoint"/>
                        <mxPoint x="120" y="240" as="targetPoint"/>
                    </mxGeometry>
                </mxCell>
                <mxCell id="20" value="{blue: 1}" style="text;html=1;align=center;verticalAlign=middle;resizable=0;points=[];autosize=1;strokeColor=none;fillColor=none;" vertex="1" parent="1">
                    <mxGeometry x="130" y="215" width="70" height="30" as="geometry"/>
                </mxCell>
                <mxCell id="21" value="" style="endArrow=classic;html=1;" edge="1" parent="1">
                    <mxGeometry width="50" height="50" relative="1" as="geometry">
                        <mxPoint x="120" y="270" as="sourcePoint"/>
                        <mxPoint x="400" y="270" as="targetPoint"/>
                    </mxGeometry>
                </mxCell>
                <mxCell id="22" value="putAsPrimary(&quot;name&quot;, &quot;new&quot;, {blue:1})" style="edgeLabel;html=1;align=center;verticalAlign=middle;resizable=0;points=[];" vertex="1" connectable="0" parent="21">
                    <mxGeometry x="-0.7571" y="3" relative="1" as="geometry">
                        <mxPoint x="76" y="-7" as="offset"/>
                    </mxGeometry>
                </mxCell>
                <mxCell id="23" value="" style="endArrow=classic;html=1;" edge="1" parent="1">
                    <mxGeometry width="50" height="50" relative="1" as="geometry">
                        <mxPoint x="400" y="290" as="sourcePoint"/>
                        <mxPoint x="400" y="320" as="targetPoint"/>
                        <Array as="points">
                            <mxPoint x="440" y="300"/>
                        </Array>
                    </mxGeometry>
                </mxCell>
                <mxCell id="24" value="incrementVersion" style="text;html=1;align=center;verticalAlign=middle;resizable=0;points=[];autosize=1;strokeColor=none;fillColor=none;" vertex="1" parent="1">
                    <mxGeometry x="410" y="270" width="120" height="30" as="geometry"/>
                </mxCell>
                <mxCell id="25" value="key: &quot;name&quot;&lt;br&gt;value: &quot;new&quot;&lt;br&gt;version: {blue:2}" style="shape=note;whiteSpace=wrap;html=1;backgroundOutline=1;darkOpacity=0.05;" vertex="1" parent="1">
                    <mxGeometry x="327.5" y="330" width="145" height="60" as="geometry"/>
                </mxCell>
                <mxCell id="26" value="" style="endArrow=classic;html=1;dashed=1;" edge="1" parent="1">
                    <mxGeometry width="50" height="50" relative="1" as="geometry">
                        <mxPoint x="400" y="410" as="sourcePoint"/>
                        <mxPoint x="120" y="410" as="targetPoint"/>
                    </mxGeometry>
                </mxCell>
                <mxCell id="27" value="&quot;new&quot;, {blue: 2}" style="text;html=1;align=center;verticalAlign=middle;resizable=0;points=[];autosize=1;strokeColor=none;fillColor=none;" vertex="1" parent="1">
                    <mxGeometry x="125" y="380" width="100" height="30" as="geometry"/>
                </mxCell>
                <mxCell id="28" value="" style="endArrow=classic;html=1;" edge="1" parent="1">
                    <mxGeometry width="50" height="50" relative="1" as="geometry">
                        <mxPoint x="120" y="440" as="sourcePoint"/>
                        <mxPoint x="560" y="440" as="targetPoint"/>
                    </mxGeometry>
                </mxCell>
                <mxCell id="29" value="put(&quot;name&quot;, &quot;new&quot;, {blue:2})" style="edgeLabel;html=1;align=center;verticalAlign=middle;resizable=0;points=[];" vertex="1" connectable="0" parent="28">
                    <mxGeometry x="-0.7571" y="3" relative="1" as="geometry">
                        <mxPoint x="27" y="-7" as="offset"/>
                    </mxGeometry>
                </mxCell>
                <mxCell id="30" value="key: &quot;name&quot;&lt;br&gt;value: &quot;new&quot;&lt;br&gt;version: {blue:2}" style="shape=note;whiteSpace=wrap;html=1;backgroundOutline=1;darkOpacity=0.05;" vertex="1" parent="1">
                    <mxGeometry x="487.5" y="450" width="145" height="60" as="geometry"/>
                </mxCell>
            </root>
        </mxGraphModel>
    </diagram>
</mxfile>